<svg data-name="Layer 1" xmlns="http://www.w3.org/2000/svg" viewBox="0 0 34.5 34.5">
  <path d="M17.25 34.5A17.27 17.27 0 0 1 0 17.25v-.75h1.5v.75A15.75 15.75 0 1 0 17.25 1.5h-.75V0h.75a17.25 17.25 0 0 1 0 34.5z"/>
  <path d="M11.933 21.186l-.75-1.297 5.317-3.073V6H18v11.25l-.375.649-5.692 3.287zM.36 13.65l.375-1.44 1.455.375-.375 1.44zm1.515-4.275l.75-1.305 1.305.75-.75 1.305zm2.58-3.72l1.065-1.08L6.585 5.64l-.525.525v.015l-.54.525zm3.465-2.94l.645-.375.66-.375.75 1.29-1.29.75zM12.03.78l1.455-.375.39 1.44-.735.195-.72.195zm5.22.72h-.75V0H18v1.5h-.75z"/>
</svg>
