<svg xmlns="http://www.w3.org/2000/svg" viewBox="14.2 11.2 16.6 13.7">
  <path d="M16.6 11.9h.2c.2 0 .4-.2.4-.4s-.2-.4-.4-.4h-.2c-.2 0-.4.2-.4.4s.2.4.4.4z"/>
  <path d="M29.7 14.8H25v-2.5c0-.6-.5-1.1-1.1-1.1h-6c-.2 0-.4.2-.4.4s.2.4.4.4h6c.2 0 .4.2.4.4V18c0 .2-.2.4-.4.4h-6.5c-.1 0-.2 0-.2.1l-2.3 1.7v-7.9c0-.2.2-.4.4-.4h.2c.2 0 .4-.2.4-.4s-.2-.4-.4-.4h-.2c-.6 0-1.1.5-1.1 1.1v8.6c0 .1.1.3.2.3h.2c.1 0 .2 0 .2-.1l2.8-2.1H20v2.5c0 .6.5 1.1 1.1 1.1h6.4l2.8 2.1c.1 0 .1.1.2.1h.2c.1-.1.2-.2.2-.3V22c0-.2-.2-.4-.4-.4s-.4.2-.4.4v1.7L27.8 22c-.1 0-.1-.1-.2-.1h-6.5c-.2 0-.4-.2-.4-.4V19h3.2c.6 0 1.1-.5 1.1-1.1v-2.5h4.7c.2 0 .4.2.4.4v3.7c0 .2.2.4.4.4s.4-.2.4-.4v-3.7c-.1-.6-.6-1-1.2-1z"/>
  <path d="M30.4 20.3c-.2 0-.4.2-.4.4v.3c0 .2.2.4.4.4s.4-.2.4-.4v-.4c0-.1-.2-.3-.4-.3zM16.4 15.1c0 .2.2.4.4.4h.7c.2 0 .4-.2.4-.4s-.2-.4-.4-.4h-.7c-.3.1-.4.2-.4.4zM28.3 16.6h-1.8c-.2 0-.4.2-.4.4s.2.4.4.4h1.8c.2 0 .4-.2.4-.4-.1-.3-.2-.4-.4-.4zM28.3 18.4h-2.2c-.2 0-.4.2-.4.4s.2.4.4.4h2.2c.2 0 .4-.2.4-.4s-.2-.4-.4-.4zM22.1 20.2c-.2 0-.4.2-.4.4s.2.4.4.4h1.1c.2 0 .4-.2.4-.4s-.2-.4-.4-.4h-1.1zM20 15.5c.2 0 .4-.2.4-.4s-.2-.4-.4-.4h-.7c-.2 0-.4.2-.4.4s.2.4.4.4h.7zM22.5 15.5c.2 0 .4-.2.4-.4s-.2-.4-.4-.4h-.7c-.2 0-.4.2-.4.4s.2.4.4.4h.7zM28.3 20.2h-3.6c-.2 0-.4.2-.4.4s.2.4.4.4h3.6c.2 0 .4-.2.4-.4s-.2-.4-.4-.4z"/>
</svg>
