<svg xmlns="http://www.w3.org/2000/svg" viewBox="7.3 1.1 30.4 33.8">
  <path d="M28.7 11.2h-5.1c-1 0-1.7-.7-1.7-1.7V3.4H23v6.2c0 .3.2.6.6.6h5.1v1zM37.7 22.5c0-4-3.3-7.3-7.3-7.3s-7.3 3.3-7.3 7.3c0 2.6 1.3 4.8 3.4 6.1v6.1l3.9-2.6 3.9 2.6v-6.1c2-1.3 3.4-3.5 3.4-6.1zm-4.5 10.2l-2.8-1.9-2.8 1.9v-3.4c.8.3 1.8.6 2.8.6s2-.2 2.8-.6v3.4zm-2.8-4c-3.4 0-6.2-2.8-6.2-6.2 0-3.4 2.8-6.2 6.2-6.2s6.2 2.8 6.2 6.2c0 3.4-2.8 6.2-6.2 6.2z"/>
  <path d="M8.4 33.2V2.8c0-.3.2-.6.6-.6h13.6c.2 0 .3.1.4.2l6.6 7.9c.1.1.2.2.2.4V14c.2 0 .4-.1.6-.1s.4 0 .6.1v-3.3c0-.4-.2-.9-.5-1.2l-6.6-7.9c-.3-.3-.7-.5-1.2-.5H9c-1 0-1.7.7-1.7 1.7v30.4c0 1 .7 1.7 1.7 1.7h16.3v-1.1H9c-.3 0-.6-.3-.6-.6z"/>
  <path d="M9.6 3.4h7.9v1.1H9.6zM9.6 5.6h11.2v1.1H9.6zM9.6 7.9h11.2V9H9.6zM9.6 29.2h15.8v1.1H9.6zM9.6 31.5h15.8v1.1H9.6zM9.6 10.1h11.2v1.1H9.6zM23.1 26.7v.3h-3.4V16.9h3.4v1.4c.6-1 1.3-1.9 2.2-2.5h-1.1v-2.2h3.4v1.1c.3-.1.7-.2 1.1-.3v-1.9H9.6v15.8h14.5c-.4-.6-.8-1.1-1-1.6zm-3.4-13.2h3.4v2.2h-3.4v-2.2zM14.1 27h-3.4V16.9h3.4V27zm0-11.2h-3.4v-2.2h3.4v2.2zM18.6 27h-3.4V16.9h3.4V27zm0-11.2h-3.4v-2.2h3.4v2.2z"/>
  <path d="M30.4 17.6l-1.9 2.8-1 4.4 3 1.8 3-1.8-1-4.4-2.1-2.8zm0 8.9l-1.9-6.1 1.9-2.8 2 2.8-2 6.1" stroke="#000" stroke-width=".25" stroke-miterlimit="10"/>
</svg>
