<svg id="Layer_1" xmlns="http://www.w3.org/2000/svg" viewBox="5 .5 34.9 34.9">
  <style>
    .st0{fill:#010101}
  </style>
  <path class="st0" d="M22.6 11.9c2.2 0 4.1-1.8 4.1-4s-1.9-4-4.1-4c-2.2 0-4.1 1.8-4.1 4s1.8 4 4.1 4zm0-7c1.6 0 3 1.3 3 3s-1.4 3-3 3-3-1.3-3-3 1.3-3 3-3z"/>
  <path class="st0" d="M36.3 27.1v-4.2c0-.3-.2-.5-.5-.5H23.1v-3.5c4.8-.3 8.6-4.3 8.6-9.1.1-5-4.1-9.1-9.2-9.1s-9.2 4.1-9.2 9.2c0 4.8 3.8 8.8 8.6 9.1v3.5H9.3c-.3 0-.5.2-.5.5v4.2c-2.1.2-3.7 2-3.7 4.1 0 2.3 1.9 4.2 4.2 4.2 2.3 0 4.2-1.9 4.2-4.2 0-2.2-1.6-3.9-3.7-4.2v-3.7H22v3.7c-2.1.3-3.7 2-3.7 4.2 0 2.3 1.9 4.2 4.2 4.2 2.3 0 4.2-1.9 4.2-4.2 0-2.2-1.6-3.9-3.7-4.2v-3.7h12.1v3.7c-2.1.3-3.7 2-3.7 4.2 0 2.3 1.9 4.2 4.2 4.2 2.3 0 4.2-1.9 4.2-4.2.2-2.2-1.4-4-3.5-4.2zM17.1 15.6c.7-1.5 2.2-2.4 3.8-2.4h3.3c1.6 0 3.1 1 3.8 2.4-1.4 1.3-3.3 2.1-5.5 2.1-2 0-4-.8-5.4-2.1zm5.5-14c4.5 0 8.1 3.7 8.1 8.1 0 2-.7 3.8-1.9 5.1-.9-1.6-2.6-2.7-4.6-2.7h-3.3c-1.9 0-3.7 1.1-4.6 2.7-1.2-1.4-1.9-3.2-1.9-5.1.1-4.5 3.7-8.1 8.2-8.1zM12.4 31.2c0 1.7-1.4 3.2-3.2 3.2C7.5 34.4 6 33 6 31.2 6 29.5 7.4 28 9.2 28c1.8.1 3.2 1.5 3.2 3.2zm13.3 0c0 1.7-1.4 3.2-3.2 3.2-1.7 0-3.2-1.4-3.2-3.2 0-1.7 1.4-3.2 3.2-3.2 1.8.1 3.2 1.5 3.2 3.2zm10 3.2c-1.7 0-3.2-1.4-3.2-3.2 0-1.7 1.4-3.2 3.2-3.2 1.7 0 3.2 1.4 3.2 3.2 0 1.8-1.4 3.2-3.2 3.2z"/>
</svg>