<svg xmlns="http://www.w3.org/2000/svg" viewBox="5.9 0 33.2 36">
  <path d="M26.2 7.9h-7.3c-.2 0-.3-.1-.3-.3 0-.2.1-.3.3-.3h7.3c.2 0 .3.1.3.3-.1.2-.2.3-.3.3zM26.2 9.6h-7.3c-.2 0-.3-.1-.3-.3 0-.2.1-.3.3-.3h7.3c.2 0 .3.1.3.3-.1.2-.2.3-.3.3zM26.2 11h-7.3c-.2 0-.3-.1-.3-.3s.1-.3.3-.3h7.3c.2 0 .3.1.3.3s-.2.3-.3.3zM26.2 6.2h-7.3c-.2 0-.3-.1-.3-.3 0-.2.1-.3.3-.3h7.3c.2 0 .3.1.3.3-.1.2-.2.3-.3.3zM26.2 4.5h-7.3c-.2 0-.3-.1-.3-.3 0-.2.1-.3.3-.3h7.3c.2 0 .3.1.3.3-.1.2-.2.3-.3.3zM24.2 2.8h-5.3c-.2 0-.3-.1-.3-.3 0-.2.1-.3.3-.3h5.3c.2 0 .3.1.3.3-.1.2-.2.3-.3.3z"/>
  <path d="M28.7 12.9V2.8L25.9 0h-8.5c-.6 0-1.1.5-1.1 1.1v11.8h1.1V1.1h7.9v1.1c0 .6.5 1.1 1.1 1.1h1.1v9.6"/>
  <path d="M30.9 13.2c-.1-.2-.1-.3-.2-.6-.2-.5-.7-.8-1.1-.8h-.3v.6h.5c.1 0 .3.1.4.3.1.2.1.3.2.6.1.2 0 .3-.2.3H14.9c-.2 0-.3-.1-.2-.3.1-.2.1-.3.2-.6.1-.2.2-.3.4-.3h.5v-.6h-.3c-.4 0-.9.4-1.1.8-.1.2-.1.3-.2.6-.2.5.1.8.6.8h15.6c.4.1.7-.3.5-.8z"/>
  <path d="M39.1 16l-3.5-6.3c-.2-.4-.8-.7-1.2-.7h-4.6v1.1h4.7l3.2 5.9H7.2l3.2-5.9h4.7V9h-4.5c-.5 0-1 .3-1.2.7L5.9 16v19.1c0 .5.4.8.8.8h31.6c.5 0 .8-.4.8-.8V16.9 16zM38 34.9H7V17.2h31v17.7z"/>
</svg>
