<svg data-name="Layer 1" xmlns="http://www.w3.org/2000/svg" viewBox="0 0 31.374 30.676">
  <path d="M6.354.916h15.73a.54.54 0 0 1 .541.54V16a.538.538 0 0 1-.112.33 45.23 45.23 0 0 0-4.854 8.05l.604 3.848a.637.637 0 0 1 .006.1 2.387 2.387 0 0 1-1.477 2.163.515.515 0 0 1-.137.044c-2.234.399-3.867-.052-4.86-1.327-1.32-1.696-1.437-4.76-.352-9.356H3.42a3.523 3.523 0 0 1-2.348-.886.54.54 0 0 1-.031-.029 3.291 3.291 0 0 1-.969-2.416 3.196 3.196 0 0 1 .796-2.158A3.403 3.403 0 0 1 0 12.058 3.071 3.071 0 0 1 .95 9.75a2.357 2.357 0 0 1 .378-.386 3.516 3.516 0 0 1-.266-1.374 3.27 3.27 0 0 1 .968-2.397 2.89 2.89 0 0 1 1.06-.708 3.742 3.742 0 0 1-.048-.621 3.09 3.09 0 0 1 1.022-2.377 3.11 3.11 0 0 1 2.29-.971zm15.19 1.08H6.355a2.062 2.062 0 0 0-1.54.666 2.05 2.05 0 0 0-.693 1.603 2.44 2.44 0 0 0 .13.824.541.541 0 0 1-.045.462.535.535 0 0 1-.386.256 1.725 1.725 0 0 0-1.02.544 2.2 2.2 0 0 0-.658 1.64 2.313 2.313 0 0 0 .348 1.277.54.54 0 0 1-.232.78 1.23 1.23 0 0 0-.478.394.725.725 0 0 1-.061.068 2.005 2.005 0 0 0-.639 1.55 2.336 2.336 0 0 0 .665 1.665.374.374 0 0 1 .037.045 1.245 1.245 0 0 0 .176.187.541.541 0 0 1-.03.837.792.792 0 0 0-.075.093.482.482 0 0 1-.05.056 2.131 2.131 0 0 0-.652 1.58 2.222 2.222 0 0 0 .637 1.638 2.439 2.439 0 0 0 1.63.613h8.714a.54.54 0 0 1 .523.672c-1.154 4.563-1.156 7.625-.008 9.101.73.937 1.964 1.243 3.743.94a1.298 1.298 0 0 0 .797-1.143l-.621-3.96a.531.531 0 0 1 .046-.316 46.711 46.711 0 0 1 4.933-8.25V1.996z"/>
  <path d="M22.085 0h8.748a.539.539 0 0 1 .54.54v15.587a.54.54 0 0 1-.54.54h-8.748a.54.54 0 0 1-.54-.54V16a.54.54 0 0 1 .887-.415h7.861V1.078h-7.668v.378a.54.54 0 0 1-1.08 0V.54a.54.54 0 0 1 .54-.539z"/>
</svg>
