<svg data-name="Layer 1" xmlns="http://www.w3.org/2000/svg" viewBox="0 0 31.374 30.676">
  <path d="M25.02 29.76H9.289a.54.54 0 0 1-.54-.54V14.676a.538.538 0 0 1 .111-.33 45.23 45.23 0 0 0 4.854-8.05l-.604-3.848a.637.637 0 0 1-.006-.1A2.387 2.387 0 0 1 14.582.184a.515.515 0 0 1 .137-.044c2.234-.399 3.866.052 4.859 1.326 1.32 1.697 1.437 4.76.352 9.357h8.025a3.523 3.523 0 0 1 2.347.886.54.54 0 0 1 .031.029 3.291 3.291 0 0 1 .97 2.415 3.196 3.196 0 0 1-.797 2.159 3.403 3.403 0 0 1 .867 2.305 3.071 3.071 0 0 1-.95 2.308 2.357 2.357 0 0 1-.378.385 3.516 3.516 0 0 1 .266 1.375 3.27 3.27 0 0 1-.968 2.397 2.89 2.89 0 0 1-1.06.708 3.742 3.742 0 0 1 .048.621 3.405 3.405 0 0 1-3.311 3.348zM9.829 28.68H25.02a2.323 2.323 0 0 0 2.232-2.269 2.44 2.44 0 0 0-.13-.824.541.541 0 0 1 .046-.462.535.535 0 0 1 .385-.256 1.725 1.725 0 0 0 1.02-.544 2.2 2.2 0 0 0 .659-1.64 2.313 2.313 0 0 0-.349-1.277.54.54 0 0 1 .233-.781 1.23 1.23 0 0 0 .477-.394.725.725 0 0 1 .062-.067 2.005 2.005 0 0 0 .638-1.55 2.336 2.336 0 0 0-.665-1.665.374.374 0 0 1-.037-.045 1.245 1.245 0 0 0-.176-.188.541.541 0 0 1 .03-.837.792.792 0 0 0 .076-.092.482.482 0 0 1 .049-.057 2.131 2.131 0 0 0 .652-1.58 2.222 2.222 0 0 0-.637-1.637 2.439 2.439 0 0 0-1.63-.613h-8.713a.54.54 0 0 1-.524-.673c1.155-4.562 1.157-7.624.008-9.1-.73-.937-1.964-1.243-3.743-.94a1.298 1.298 0 0 0-.797 1.143l.622 3.96a.531.531 0 0 1-.046.315 46.711 46.711 0 0 1-4.933 8.25V28.68z"/>
  <path d="M9.289 30.676H.54a.539.539 0 0 1-.54-.54V14.55a.54.54 0 0 1 .54-.54h8.749a.54.54 0 0 1 .54.54v.126a.54.54 0 0 1-.887.414H1.08v14.509H8.75v-.378a.54.54 0 0 1 1.08 0v.917a.54.54 0 0 1-.54.539z"/>
</svg>
