<svg data-name="Layer 1" xmlns="http://www.w3.org/2000/svg" viewBox="0 0 35.788 28.13">
  <path d="M15.037 16.459h.267a2.511 2.511 0 0 1-.21-.187 12.804 12.804 0 0 1-3.718-8.604C11.376 3.435 14.843 0 18.123 0c3.276 0 6.569 3.661 6.569 7.895a12.104 12.104 0 0 1-3.981 8.424c.454 1.728 2.93 2.293 8.042 3.694 5.681 1.558 7.052 5.525 7.035 8.117H0c-.018-2.592 1.357-6.559 7.038-8.117 4.972-1.365 7.449-1.937 8-3.554z"/>
  <path d="M15.304 16.459h-.267c.022-.061.04-.122.058-.187a2.511 2.511 0 0 0 .209.187z"/>
</svg>
