<svg xmlns="http://www.w3.org/2000/svg" viewBox="0 0 132.5 73.6" height="1em" width="1.800271739em">
  <path d="M5.5 53.8c0-1.3 1.4-3.4 2.3-3.4.3 0 .5.2.6.5.2.2 1.2 1.4 3.4 1.4 2.4 0 4.1-1.6 4.1-4.1 0-6.9-14.2-7.2-14.2-19.1 0-7.7 8.4-15.9 16.3-15.9 4.5 0 7.4 3 7.4 7.5 0 6.5-7.5 12.6-11.1 12.6-2 0-3.3-2.2-3.3-3.4 0-1 .5-.4 1.5-.4 3.2 0 8.4-4.9 8.4-8.8 0-2-.9-3.2-3.2-3.2-4.3 0-11.5 5.1-11.5 11.5 0 9 14.3 9.2 14.3 19 0 4.7-3.8 8.6-8.7 8.6-5 .1-6.3-2.5-6.3-2.8zM26.9 45.2c0-6.7 4-13.5 9.5-13.5 4 0 5.5 3.7 5.5 5.7 0 2.2-4 3.4-3.7 1.3-.3-1-.4-3.1-2.4-3.1-2.2 0-4.2 4.3-4.2 9.6 0 4.6 2.5 7.2 6 7.2 4.6 0 6.7-3.8 7.4-7.3.5-2.6 3.8-1.5 3.6.6-.4 3.6-3 10.6-11.6 10.6-5.2-.1-10.1-3.9-10.1-11.1z"/>
  <path d="M66.8 46.1c.2-1.2.8-1.8 1.4-1.8.9 0 2 1.3 2 2.4 0 .1 0 .2-.1.4-1 3.8-3.3 9.1-8.3 9.1-2 0-3.6-1-4.5-2.4-1.2 1.3-2.8 2.4-5 2.4-4.6 0-6.9-3.9-6.9-8.8 0-9.7 6.8-15.7 13.9-15.7 1.6 0 2.7.9 2.7 2.5 0 1-.2 1.3-.8 1.3-.5 0-1.1-.1-1.7-.1-4.4 0-9.6 3.8-9.6 12.2 0 3 1.3 4.8 3.3 4.8 1.6 0 2.6-1.4 3.3-3v-9c0-1.1-.2-1.5-.2-1.9 0-.6.7-1 1.5-1 1.9 0 3.2 1.2 3.2 2.6v9.6c0 1.3.6 2.7 2 2.7 2.3 0 3.3-3.8 3.8-6.3z"/>
  <path d="M68.5 27.3v-9.9c0-1.7-.6-1.8-.6-2.2s1.1-.6 1.9-.6c1.9 0 3.2 1.2 3.2 2.6v10.2c3.6 0 7.6-.1 11.6-.2 1.6-1.8 1.1 3.9-.4 3.9-4.7.1-8.1.1-11.2.1v18.5c0 1.9.8 2.7 2 2.7 2.3 0 3.4-3.7 3.9-6.3.2-1.2.8-1.8 1.4-1.8.9 0 2 1.3 2 2.4 0 .1 0 .2-.1.4-1 3.8-3.3 9.1-8.3 9.1-3.1 0-5.4-1.9-5.4-6.5V31.2c-2.6 0-4-.1-4-.1-1.9 0-2.9-3.9-1.2-3.9 0 0 2.1.1 5.2.1z"/>
  <path d="M80.6 27.3v-9.9c0-1.7-.6-1.8-.6-2.2s1.1-.6 1.9-.6c1.9 0 3.2 1.2 3.2 2.6v10.2c3.6 0 7.6-.1 11.6-.2 1.6-1.8 1.1 3.9-.4 3.9-4.7.1-8.1.1-11.2.1v18.5c0 1.9.8 2.7 2 2.7 2.3 0 3.4-3.7 3.9-6.3.2-1.2.8-1.8 1.4-1.8.9 0 2 1.3 2 2.4 0 .1 0 .2-.1.4-1 3.8-3.3 9.1-8.3 9.1-3.1 0-5.4-1.9-5.4-6.5V31.2c-2.6 0-4-.1-4-.1-1.9 0-2.9-3.9-1.2-3.9-.1 0 2 .1 5.2.1z"/>
  <path d="M97.4 48.7c.8 2 2.4 3.6 5.4 3.6 4.6 0 6.4-3.8 7.1-7.3.5-2.6 3.8-1.5 3.6.6-.4 3.6-2.7 10.6-11.3 10.6-5.3 0-10.3-4.3-10.3-11.6 0-7.4 4.4-13 8.9-13 3.3 0 5.2 2.4 5.2 5.9 0 4.4-3 9.6-8.6 11.2zm-.7-3.2c2.9-1.3 4.8-4.4 4.8-7.9 0-1.3-.5-2-1.2-2-2.9 0-3.7 6.4-3.6 8.9-.1.3 0 .7 0 1z"/>
  <path d="M118.1 49.6c0-3.7 1-7.9 2.9-12.9h-5c-.1 2.3-.4 7.4-1.5 10.7-.8 2.5-3.8.4-3.3-1.6.6-2.3.9-7.2.9-10.1-1.5-.8-2.5-2-2.5-3.7 0-1.6 1.4-2.7 2.9-2.7 1.4 0 3 .7 3.7 3.1 1.9.2 2.5.2 3.1.2h3c.7 0 3 1.9 2.8 3.3 0 .7-2.6 7.6-2.6 13.4 0 1.6.8 3.2 2.3 3.2 2.7 0 3.7-3.7 4.2-6.3.2-1.2.8-1.8 1.4-1.8.9 0 2 1.3 2 2.4 0 .2-.1.3-.1.4-1 3.8-3.3 9.1-8.3 9.1-2.7-.1-5.9-1.6-5.9-6.7z"/>
</svg>
