<?xml version="1.0" standalone="no"?>
<!DOCTYPE svg PUBLIC "-//W3C//DTD SVG 20010904//EN"
 "http://www.w3.org/TR/2001/REC-SVG-20010904/DTD/svg10.dtd">
<svg version="1.0" xmlns="http://www.w3.org/2000/svg"
 width="700.000000pt" height="700.000000pt" viewBox="0 0 700.000000 700.000000"
 preserveAspectRatio="xMidYMid meet">
<metadata>
Created by potrace 1.11, written by Peter Selinger 2001-2013
</metadata>
<g transform="translate(0.000000,700.000000) scale(0.100000,-0.100000)"
fill="#000000" stroke="none">
<path d="M2660 5849 l-756 -1069 -388 -1657 c-251 -1068 -386 -1661 -380
-1670 5 -7 521 -315 1147 -684 l1138 -671 1154 677 c1036 607 1154 679 1150
699 -3 11 -142 617 -310 1345 l-305 1324 117 131 c156 176 597 615 758 755
144 126 325 274 455 371 47 34 90 67 95 73 6 6 -37 7 -125 3 -440 -19 -934
-194 -1385 -490 l-143 -94 -728 1014 c-401 557 -731 1013 -734 1013 -3 0 -345
-481 -760 -1070z m1446 -159 c346 -481 633 -880 637 -886 4 -7 -36 -47 -101
-100 -215 -178 -494 -465 -704 -724 -242 -300 -509 -704 -718 -1089 l-83 -152
-51 103 c-92 185 -189 305 -311 387 -104 70 -171 92 -285 98 -109 6 -185 -9
-289 -57 -95 -45 -245 -159 -296 -226 l-24 -31 78 0 c66 1 87 -4 134 -26 114
-57 172 -133 350 -463 154 -286 245 -466 430 -849 71 -148 159 -330 194 -404
54 -111 67 -131 77 -120 8 8 66 115 131 239 478 913 994 1711 1584 2449 95
119 116 140 123 125 20 -51 559 -2427 552 -2434 -5 -5 -482 -286 -1061 -625
l-1052 -616 -1053 621 c-835 492 -1053 625 -1051 640 5 37 733 3136 743 3157
7 17 1173 1673 1327 1886 l35 47 27 -37 c15 -21 311 -432 657 -913z"/>
</g>
</svg>
